<svg version="1.1" xmlns="http://www.w3.org/2000/svg" xmlns:xlink="http://www.w3.org/1999/xlink" width="566.73439" height="525.14205" viewBox="0,0,566.73439,525.14205"><g transform="translate(69.1172,13.18561)"><g fill="#ffeeb9" stroke="none" stroke-miterlimit="10"><path d="M235.50085,230.07643c2.23607,1.11803 1.11803,3.3541 1.11803,3.3541c-0.68484,1.36968 -3.42541,6.85081 -4.11024,8.22049c22.88246,-22.88374 45.75959,-45.77272 68.61991,-68.67859c16.47565,-16.50847 31.63034,-34.08867 47.07321,-51.56072c3.11339,-3.52249 4.37468,-5.85875 6.62424,-10.01051c1.32743,-2.44991 2.26352,-4.82908 3.68651,-6.83978c-12.16292,5.36977 -23.8689,11.95738 -34.54285,19.8866c-9.3311,6.93167 -18.88229,13.64498 -28.02778,20.81879c-17.78259,13.94883 -34.5076,29.53243 -51.68126,44.22908c-7.54579,6.45373 -14.44708,13.6804 -21.5424,20.62476c-1.90856,1.86795 -3.82351,3.73044 -5.7411,5.59086c-12.77217,13.70236 -25.68455,27.25138 -38.9563,40.48963l-0.17348,0.06407l0.03547,0.0473l-3.9798,2.98485c-0.42124,0.32311 -0.94829,0.51515 -1.5202,0.51515c-1.38071,0 -2.5,-1.11929 -2.5,-2.5c0,-0.67003 0.26359,-1.2785 0.69273,-1.72737l3.4452,-3.61746c1.82539,-2.7891 4.5977,-4.82759 6.89655,-7.24138c5.545,-5.82225 11.11723,-11.57104 16.86355,-17.1951c6.62792,-6.4869 13.15313,-13.17155 19.7608,-19.77197c2.22049,-2.39127 4.43719,-4.78701 6.65101,-7.18667c23.72791,-25.71971 47.15476,-51.70841 70.62177,-77.6662c16.68409,-18.45493 30.50336,-39.36307 45.09724,-59.50153c1.8685,-2.57839 4.26117,-4.8403 5.63813,-7.71143c1.80734,-3.76854 0.63481,-4.62822 1.81965,-7.74283c-12.20159,7.5942 -23.75358,15.92161 -35.43036,24.31847c-26.20151,23.00267 -52.07109,46.31938 -77.82819,69.8186c-13.2067,12.04899 -25.8248,24.7164 -38.42411,37.40126c-2.90502,3.46153 -5.84334,6.90384 -8.82191,10.32919c-5.47095,6.29123 -11.17043,12.3756 -16.66404,18.64697l-3.28545,3.75044c-0.45839,0.52876 -1.135,0.8632 -1.88973,0.8632c-1.38071,0 -2.5,-1.11929 -2.5,-2.5c0,-0.55889 0.18339,-1.07494 0.49328,-1.49126l2.92112,-4.02362c0.70889,-1.50839 1.95832,-2.69743 2.93747,-4.04614c5.54515,-7.638 12.21055,-13.94596 18.87967,-20.61508c1.33063,-1.33063 2.65971,-2.66255 3.98805,-3.99498c8.72681,-10.39398 17.14993,-20.96147 25.46181,-31.76691c3.99866,-5.19826 8.40917,-10.26971 12.085,-15.69885c5.19832,-7.67783 9.15996,-16.58987 13.64738,-24.70995c2.21421,-4.00666 5.5505,-8.43746 7.08339,-12.74427c1.53164,-4.30326 1.35737,-9.62199 2.34828,-14.08986c0.26104,-1.17698 1.37542,-2.31301 1.0282,-3.46751c-0.25696,-0.8544 -1.52571,-1.10832 -2.41694,-1.15006c-1.09816,-0.05143 -2.10773,0.62962 -3.17628,0.8881c-2.49329,0.60313 -5.03229,1.30203 -7.2403,2.60778c-14.34151,8.48115 -27.99335,17.56483 -41.69541,27.04568c-14.28334,11.29998 -28.84378,22.32192 -42.89033,33.91397c-12.53228,10.34239 -24.54184,21.39876 -36.78979,32.07764c-26.37711,22.99796 -52.5948,46.14374 -78.63746,69.51982c-14.86867,13.34623 -29.92245,26.51605 -44.56212,40.11291c-6.10601,5.67107 -12.21213,11.34203 -18.31819,17.01305c-2.44243,2.26841 -4.53383,4.9865 -7.32728,6.80522l-3.65869,3.39802c-0.44674,0.41734 -1.04667,0.67277 -1.70625,0.67277c-1.38071,0 -2.5,-1.11929 -2.5,-2.5c0,-0.49218 0.14223,-0.95114 0.38782,-1.33802l2.58704,-4.23195c8.73349,-14.28649 18.16742,-28.09389 28.06951,-41.6032c20.68947,-28.22444 41.23112,-56.54625 61.67022,-84.9525c20.44481,-28.41418 40.99113,-56.75182 61.58011,-85.06168c6.80983,-9.36352 14.09627,-18.53333 20.4989,-28.17784c3.19773,-4.81685 5.69084,-10.30525 8.48865,-15.36677c2.41886,-4.37597 4.83772,-8.75194 7.25657,-13.12791c1.46607,-2.65227 3.39466,-5.06978 4.54756,-7.87241c0.28789,-0.69983 0.99153,-2.18474 0.23832,-2.25766c-0.97666,-0.09455 -1.35389,1.42344 -2.08402,2.07898c-3.0913,2.77549 -6.59693,5.19955 -9.86199,7.76496c-27.2942,21.44224 -52.44213,45.72004 -77.47679,69.71159c-15.16449,14.53264 -29.96359,29.1954 -44.37919,44.47124c-4.57555,4.84859 -9.15096,9.69731 -13.72664,14.54577c-2.27055,2.40591 -4.08254,5.29964 -6.70318,7.31857l-3.31351,3.7277c-0.45813,0.52022 -1.12915,0.84844 -1.87683,0.84844c-1.38071,0 -2.5,-1.11929 -2.5,-2.5c0,-0.55242 0.17917,-1.06299 0.48258,-1.47677l2.0769,-2.90766c1.73982,-2.43537 3.45136,-4.89179 5.10683,-7.38526c19.06276,-28.70691 37.4751,-58.05748 54.10525,-88.23351c4.83856,-8.77975 9.4835,-17.13717 12.92783,-26.55998c1.03764,-2.83873 4.20816,-8.04256 3.5458,-11.27455c-0.07938,-0.38732 -0.29269,0.75674 -0.56618,1.04226c-0.54922,0.57335 -1.2342,0.99919 -1.85883,1.4893c-1.31122,1.02883 -2.63237,2.04493 -3.94856,3.06739c-2.6355,2.04736 -5.27588,4.08844 -7.9211,6.12323c-8.93454,6.87273 -17.12893,14.45199 -25.47819,22.02208c-7.6935,6.9732 -15.15545,14.26682 -22.4316,21.75118c-11.2913,12.96824 -22.8999,25.56136 -33.6779,39.00959c-3.36342,3.36843 -6.72913,6.73454 -10.09505,10.10046l-2,2c-0.45241,0.45241 -1.07741,0.73223 -1.76777,0.73223c-1.38071,0 -2.5,-1.11929 -2.5,-2.5c0,-0.61475 0.22189,-1.17768 0.58995,-1.61307l3.19042,-3.8285c1.62204,-2.92701 4.24481,-5.17527 6.42718,-7.71213c4.35416,-5.06144 8.87196,-9.99225 13.30502,-14.98486c7.49976,-8.44639 15.22937,-16.82912 23.18663,-24.98205c1.39933,-1.60861 2.79334,-3.22344 4.17973,-4.84695c9.71834,-11.38051 18.92186,-23.24795 28.36945,-34.855c9.31512,-11.44429 16.47797,-24.26263 24.46632,-36.65148c0.77428,-1.20081 1.98677,-2.19518 2.36989,-3.57164c0.36126,-1.29792 -0.24936,-2.69176 -0.20034,-4.03848c-0.77586,-0.38874 -1.57364,-0.7439 -2.38826,-1.06508c-2.08169,1.14775 -4.27724,2.0877 -6.40582,3.14924c-8.69132,4.33444 -16.25444,11.1251 -24.02053,16.94582c-9.89416,8.58079 -20.40245,16.76908 -29.83311,25.85264c-3.80252,3.66257 -7.41336,7.57851 -10.9789,11.53461c-3.11654,4.19039 -6.31792,8.31572 -9.56278,12.3901c-4.76896,5.98811 -9.54222,11.97267 -14.33203,17.94413l-0.12693,0.06859l0.03187,0.03187l-3.53553,3.53553c-0.45241,0.45241 -1.07741,0.73223 -1.76777,0.73223c-1.38071,0 -2.5,-1.11929 -2.5,-2.5c0,-0.54308 0.17317,-1.04572 0.4673,-1.45571l2.84309,-4.07541c0.69263,-1.51593 1.90717,-2.73383 2.86076,-4.10074c4.92357,-7.05765 10.30055,-13.16123 16.15621,-19.45783c1.44151,-1.55006 2.86784,-3.12717 4.2922,-4.71212c7.43833,-10.15646 14.29084,-20.6309 20.9022,-31.42672c-5.14434,4.32733 -10.22842,8.73139 -15.24676,13.24087c-2.00207,1.79906 -3.79166,3.83012 -5.51984,5.89368c-0.67826,0.80989 -1.14399,1.87253 -2.04868,2.41798c-1.59563,0.96203 -3.45145,2.73038 -5.19107,2.52533c-12.85151,14.47972 -25.64114,29.0121 -38.67057,43.34034c-2.01374,2.0143 -4.02754,4.02854 -6.04155,6.04255l-2,2c-0.45241,0.45241 -1.07741,0.73223 -1.76777,0.73223c-1.38071,0 -2.5,-1.11929 -2.5,-2.5c0,-0.48518 0.13821,-0.93808 0.37741,-1.32147l2.55134,-4.25223c0.92946,-2.4078 4.20941,-6.48555 5.72313,-8.49996c3.00368,-3.99723 6.00961,-7.99279 9.01508,-11.98867c13.04,-17.33716 28.14346,-33.04757 43.08221,-48.7222c3.5544,-3.26005 7.08528,-6.54423 10.67985,-9.75807c-0.84626,-0.04868 -1.69314,-0.10695 -2.52856,0.01033c-1.84986,0.25969 -6.34798,3.13127 -7.86223,1.56039c-4.65961,-4.83388 -0.57304,-6.91874 1.52842,-9.61308c0.77519,-0.99389 1.22262,-2.24513 2.11722,-3.13307c5.18231,-5.14369 12.04005,-7.25933 18.73312,-9.53285c2.69699,-0.91612 5.06003,-3.36408 7.90579,-3.24282c8.58219,0.3657 5.27768,4.61291 2.66128,9.20267c-0.01876,0.03292 -4.30431,5.45096 -5.79571,7.33622c0.20201,1.32303 -0.21904,3.01418 -0.37394,4.50296c3.46477,-2.79166 6.95501,-5.55751 10.4689,-8.30533c4.21633,-2.45137 8.94443,-6.11812 13.51452,-7.8001c6.67156,-2.4554 14.92448,-2.38591 22.33446,-0.01422c2.43475,-1.06567 5.15756,-1.8823 6.66226,-0.81184c1.2757,0.90755 1.25148,2.65715 1.15365,4.41625c4.30913,2.71419 7.83675,6.42084 9.85776,11.05336c1.45366,3.33204 1.18897,6.46692 1.19405,9.91374c0.00738,4.99997 0,10.00002 0,15c0,0 0,2.5 -2.5,2.5c-1.46298,0 -2.06984,-0.85613 -2.32157,-1.56639c-0.27503,2.2798 -1.37271,4.57335 -2.06637,6.52368c-1.67062,4.69715 -3.15821,9.72981 -5.2223,14.26553c-2.75716,6.05867 -6.52514,11.85532 -9.73917,17.68729c-13.56333,24.61117 -28.30638,48.67638 -43.62174,72.29195c15.14849,-15.99769 30.59564,-31.47153 46.51098,-46.72372c25.15372,-24.10565 50.42656,-48.48528 77.84721,-70.03325c1.31053,-1.0297 2.62106,-2.05941 3.93159,-3.08911c4.87522,-3.83053 15.92585,-14.48023 15.82148,0.09421c-0.01411,1.97082 -1.7828,3.51583 -2.70901,5.25551c-2.34844,4.41098 -4.83904,8.75435 -7.25657,13.12791c-3.6478,6.59927 -6.9057,13.72252 -11.06557,20.00889c-6.44439,9.73871 -13.80368,18.98821 -20.67312,28.43369c-20.584,28.303 -41.12536,56.63378 -61.56522,85.04108c-20.4477,28.41821 -40.99803,56.75195 -61.6962,84.98827c-7.09204,9.67423 -13.94142,19.50279 -20.46178,29.55323c2.72178,-2.52786 5.44356,-5.05572 8.16534,-7.58357c17.10733,-15.88846 34.57758,-31.37989 51.9521,-46.97539c26.06054,-23.39214 52.29626,-46.55387 78.69148,-69.56762c12.27826,-10.7053 24.31876,-21.78639 36.88122,-32.15544c14.11683,-11.65202 28.74799,-22.73628 43.10967,-34.08603c11.04648,-7.65162 21.92044,-15.48304 33.51504,-22.28195c3.77802,-2.21537 7.9354,-5.5281 12.05797,-7.0355c4.79147,-1.75198 13.17385,-4.35677 16.47298,1.8539c1.0046,1.89117 -0.36371,4.26882 -0.64025,6.39233c-0.59599,4.57652 -1.01698,10.56253 -2.5582,14.90536c-1.62227,4.57119 -5.07626,9.25892 -7.42719,13.51298c-4.55098,8.2351 -8.57921,17.23826 -13.84204,25.0328c-3.41215,5.0536 -7.44983,9.80245 -11.22658,14.62011c2.80581,-2.66204 5.63476,-5.30078 8.49395,-7.90934c25.84008,-23.57492 51.77128,-46.99277 78.08559,-70.03795c12.28973,-8.85906 24.46229,-17.62196 37.37023,-25.55942l4.22544,-2.59835c0.38797,-0.24764 0.84885,-0.39115 1.34325,-0.39115c1.38071,0 2.5,1.11929 2.5,2.5c0,0.24866 -0.0363,0.48884 -0.1039,0.71553l-1.30537,4.7672l-0.1623,-0.04444c-0.42123,3.51837 -1.16041,7.03389 -2.63578,10.11021c-0.12735,0.26553 -5.77377,8.03613 -6.09779,8.48327c-2.93398,4.04867 -5.86796,8.09735 -8.80194,12.14602c-11.81464,16.30333 -23.12604,32.83188 -36.63497,47.77463c-13.27405,14.68295 -26.53528,29.37576 -39.84536,44.02424c11.21109,-9.86922 22.45185,-19.7463 34.14568,-28.92551c9.18807,-7.21228 18.78728,-13.95811 28.16429,-20.92389c11.58316,-8.60463 24.34879,-15.67915 37.60143,-21.35886l4.54493,-1.94783c0.31554,-0.1438 0.66621,-0.22391 1.0356,-0.22391c1.38071,0 2.5,1.11929 2.5,2.5c0,0.44796 -0.11782,0.8684 -0.32416,1.23203l-2.35973,4.35511l-0.27476,-0.14887c-2.08819,5.6424 -4.84995,11.31452 -8.27851,15.90139c-4.98847,6.67378 -11.19019,12.72642 -16.69989,18.98067c-11.08781,12.58616 -22.21511,24.90656 -34.06535,36.7804c-24.33642,24.3849 -48.69188,48.75068 -73.05255,73.11135c-1.17851,1.17851 -2.35702,2.35702 -3.53553,3.53553l-2.92893,2.92893c-0.45241,0.45241 -1.07741,0.73223 -1.76777,0.73223c-1.38071,0 -2.5,-1.11929 -2.5,-2.5c0,-0.41989 0.10352,-0.81561 0.28642,-1.16302l2.21358,-4.42715c1.37468,-4.49463 4.60276,-9.20552 6.7082,-13.41641l2.05573,-4.11146c0,0 1.11803,-2.23607 3.3541,-1.11803zM13.41519,10.50658c-0.37047,0.46812 -0.74096,0.93623 -1.11146,1.40432c-1.49327,1.61909 -2.98268,3.24146 -4.46868,4.86673c1.85769,-1.55557 3.72351,-3.10105 5.59717,-4.63769c-0.01493,-0.54569 -0.02945,-1.09191 -0.01703,-1.63337zM17.76021,18.0858c-1.61689,4.5068 -5.48036,9.25744 -7.9511,13.37533c-0.24691,0.41152 -0.49517,0.82228 -0.74475,1.23228c7.45235,-6.58481 15.27018,-12.84951 22.74881,-19.32673c6.65396,-4.99366 13.1818,-10.80913 20.25531,-15.1808c0.074,-0.04573 3.28968,-1.65603 5.88715,-2.95524c-4.72777,-0.65219 -9.51582,-0.26715 -13.54804,1.21687c-4.21183,1.55012 -8.5433,4.99623 -12.43833,7.24814c-4.51732,3.55022 -8.99651,7.12677 -13.43419,10.74739c-0.12344,1.2463 -0.35433,2.4706 -0.77486,3.64278zM72.7843,3.60753c-0.51089,1.83551 -1.95575,3.27051 -2.95442,4.89309c-7.80882,12.68728 -15.41518,25.5901 -24.82088,37.14568c-2.27331,2.79293 -4.53258,5.60083 -6.7883,8.41338c8.60889,-7.57766 17.34366,-14.84765 26.46633,-21.93451c1.69673,-1.31809 8.97186,-8.42674 11.9506,-5.97494c1.22577,1.00893 1.91642,2.11246 2.24485,3.26027c-0.00141,-4.36599 -0.00652,-8.73203 0.00033,-13.098c0.00377,-2.4042 0.25823,-5.61273 -0.76711,-7.89207c-1.16653,-2.59322 -2.92083,-4.82959 -5.06777,-6.69437c-0.0179,0.63781 -0.09284,1.26784 -0.26363,1.88147zM13.85887,1.88765c0.26238,-0.33177 0.52477,-0.66353 0.78716,-0.99528c2.21511,-2.80064 4.25318,-5.96217 6.88538,-8.43359c-0.70629,0.42772 -1.4328,0.82246 -2.18453,1.16036c-1.10403,0.49626 -2.29011,0.78487 -3.43572,1.17571c-5.81889,1.98522 -12.21938,3.70276 -16.71222,8.2357c-1.05216,1.06155 -1.84239,2.36237 -2.81294,3.49695c2.2847,-1.0353 4.40915,-0.696 6.99681,-0.71498c0,0 2.05628,0 2.43906,1.86488c0.25508,-0.22104 0.51062,-0.44159 0.76663,-0.66161c1.35987,-1.16869 2.46592,-2.73288 4.08879,-3.49535c0.97815,-0.45956 2.07804,-1.12669 3.18158,-1.63277zM-40.36929,63.22265c6.74176,-7.58939 13.46097,-15.19784 20.20233,-22.78741c0.0097,-0.06567 0.01978,-0.13132 0.03021,-0.19692c-6.95803,7.47455 -13.78312,15.0778 -20.23255,22.98433z" stroke-width="0.5"/><path d="M-9.61719,511.95644v-518.64394h507.23438v518.64394z" stroke-width="0"/></g></g></svg>