<svg version="1.1" xmlns="http://www.w3.org/2000/svg" xmlns:xlink="http://www.w3.org/1999/xlink" width="288.05344" height="115.89438" viewBox="0,0,288.05344,115.89438"><g transform="translate(-87.94656,-45.78983)"><g fill="#9966ff" stroke="none" stroke-width="0.5" stroke-miterlimit="10"><path d="M94.26393,111.43053c-1.11803,-2.23607 1.11803,-3.3541 1.11803,-3.3541l1.03791,-0.15068c4.65563,-6.88223 6.86002,-14.75433 9.73295,-22.47392c1.52214,-4.09001 2.85421,-6.65792 2.84718,-11.13932c-0.0053,-3.37544 -0.47572,-7.60069 0,-11c0.10853,-0.77553 0.97987,-1.48933 0.73223,-2.23223c-0.15109,-0.45327 -0.76144,0.65078 -1.23223,0.73223c-0.28903,0.05001 -0.58059,0.07068 -0.87355,0.07492c-0.59816,1.28201 -1.25872,2.5307 -1.9955,3.7324c-1.48817,2.42724 -3.55336,4.47706 -4.96867,6.9475c-1.27332,2.2226 -1.71794,4.86293 -3.03565,7.05951c-1.11266,1.85477 -2.85326,3.26844 -4.0465,5.07242l-1.31236,1.38102c0,0 -1.76777,1.76777 -3.53553,0c-1.76777,-1.76777 0,-3.53553 0,-3.53553l0.68764,-0.61898c1.17364,-1.74847 2.86986,-3.12194 3.9535,-4.92758c1.29453,-2.15704 1.71833,-4.75507 2.96435,-6.94049c1.43031,-2.50865 3.51343,-4.59586 5.03133,-7.0525c0.61795,-1.00012 1.17497,-2.04056 1.68167,-3.10992c-0.03281,-0.17734 -0.05073,-0.37109 -0.05073,-0.58276c0,-1.23804 0.6131,-1.86298 1.23206,-2.17844c1.18951,-3.07509 2.06174,-6.29844 2.84259,-9.4279c0,0 0.60634,-2.42536 3.0317,-1.81902c2.42536,0.60634 1.81902,3.0317 1.81902,3.0317c-0.66013,2.63563 -1.3881,5.31153 -2.28552,7.92725c1.67047,0.07185 3.25216,0.25455 3.62793,0.69865c1.25185,1.47946 0.57094,3.83647 0.73223,5.76777c0.2978,3.56587 0.00525,7.44331 0,11c-0.00738,5.00075 -1.45504,8.31703 -3.15282,12.86068c-0.86138,2.30524 -1.07331,4.83186 -2.03748,7.09603c-2.38199,5.59368 -4.89881,11.37256 -8.22957,16.43004l-2.96209,1.84932c0,0 -2.23607,1.11803 -3.3541,-1.11803z"/><path d="M129.5,81.8125c-2.5,0 -2.5,-2.5 -2.5,-2.5c0,-3 0,-8 0,-11c0,0 0,-2.5 2.5,-2.5c2.5,0 2.5,2.5 2.5,2.5c0,3 0,6 0,9v2c0,0 0,2.5 -2.5,2.5z"/><path d="M139,100.3125c0,-2.25511 2.03421,-2.47601 2.43273,-2.49765c3.33578,-3.72458 3.80665,-8.14541 4.59955,-12.90281c0.17329,-1.03975 0.82049,-1.9613 1,-3c0.8436,-4.88137 -0.03228,-10.62505 -0.03228,-15.59954c0,0 0,-2.5 2.5,-2.5c2.5,0 2.5,2.5 2.5,2.5c0,11.85093 1.2919,26.56137 -7.73223,35.76777l-2.76777,0.73223c0,0 -2.5,0 -2.5,-2.5z"/><path d="M160,90.3125c0,-1.38071 1.11929,-2.5 2.5,-2.5c1.38071,0 2.5,1.11929 2.5,2.5c0,1.38071 -1.11929,2.5 -2.5,2.5c-1.38071,0 -2.5,-1.11929 -2.5,-2.5z"/><path d="M158,101.3125c0,-1.38071 1.11929,-2.5 2.5,-2.5c1.38071,0 2.5,1.11929 2.5,2.5c0,1.38071 -1.11929,2.5 -2.5,2.5c-1.38071,0 -2.5,-1.11929 -2.5,-2.5z"/><path d="M174.73223,119.08027c-1.76777,-1.76777 0,-3.53553 0,-3.53553l0.39606,-0.0228c2.42098,-7.25909 2.87171,-13.58684 2.87171,-21.20943c0,0 0,-2.5 2.5,-2.5c2.5,0 2.5,2.5 2.5,2.5c0,8.14174 -0.54308,15.03094 -3.12829,22.79057l-1.60394,1.9772c0,0 -1.76777,1.76777 -3.53553,0z"/><path d="M210.70943,79.68421c-2.37171,-0.79057 -1.58114,-3.16228 -1.58114,-3.16228l1,-3c0.97929,-2.93183 1.6908,-5.91635 2.36356,-8.91391c-0.30408,0.13156 -0.63945,0.20448 -0.99185,0.20448c-1.38071,0 -2.5,-1.11929 -2.5,-2.5c0,-0.17123 0.01722,-0.33845 0.05001,-0.5c-0.03279,-0.16155 -0.05001,-0.32877 -0.05001,-0.5c0,-1.38071 1.11929,-2.5 2.5,-2.5c0.84962,0 1.60026,0.42383 2.05201,1.07159c0.16835,-0.72662 0.34148,-1.45279 0.52263,-2.17793c0,0 0.60634,-2.42536 3.0317,-1.81902c2.42536,0.60634 1.81902,3.0317 1.81902,3.0317c-1.35512,5.41648 -2.28797,10.87693 -4.05365,16.18423l-1,3c0,0 -0.79057,2.37171 -3.16228,1.58114z"/><path d="M211,122.3125c0,-2.5 2.5,-2.5 2.5,-2.5l0.57882,0.44325c1.77604,-1.13437 2.78633,-3.22428 3.71298,-5.11701c2.16756,-4.42737 4.36594,-8.69458 6.17414,-13.28491c3.30701,-8.36787 6.16452,-17.24934 8.08773,-26.05657c0.59465,-2.72316 0.76561,-5.66421 1.44044,-8.35009c0.38898,-1.54818 1.27852,-2.9601 1.53818,-4.53514c0.12259,-0.74361 -0.1751,-7.57904 -0.03228,-8.59954c0.06622,-0.47318 1.07008,-0.89438 0.73223,-1.23223c-0.33785,-0.33785 -0.75905,0.66601 -1.23223,0.73223c-1.32047,0.18479 -2.66667,0 -4,0c-4.66667,0 -9.33333,0 -14,0c0,0 -2.5,0 -2.5,-2.5c0,-2.5 2.5,-2.5 2.5,-2.5c5.91077,0 12.10376,-0.49242 18,0c1.60231,0.13382 3.63082,-0.40472 4.76777,0.73223c1.13695,1.13695 0.59842,3.16546 0.73223,4.76777c0.26078,3.12263 0.46279,6.30631 -0.03228,9.40046c-0.27445,1.71526 -1.20145,3.26682 -1.6241,4.9517c-0.27337,1.08978 -1.06099,6.62065 -1.39729,8.16308c-1.98031,9.08282 -4.92891,18.22698 -8.32924,26.86098c-2.66647,6.74955 -5.75007,16.36642 -11.69591,20.68054l-3.42118,0.44325c0,0 -2.5,0 -2.5,-2.5z"/><path d="M299.29057,62.94079c2.37171,0.79057 1.58114,3.16228 1.58114,3.16228l-1.24508,3.52376c-6.02596,6.26923 -11.87594,12.47121 -17.75097,18.84246c-1.71324,1.85795 -6.95445,7.31914 -9.55288,7.33692c-4.83821,0.03311 -4.26197,-4.95115 -4.32278,-7.49371c-0.2309,-9.65418 0,-19.34292 0,-29c0,0 0,-2.5 2.5,-2.5c2.5,0 2.5,2.5 2.5,2.5c0,6.66667 0,13.33333 0,20c0,3 0.09442,6.00149 0,9c-0.02153,0.68371 -0.10293,1.36485 -0.1903,2.04329c-0.0205,0.15921 -0.24936,0.57303 -0.13248,0.463c8.00532,-7.5358 14.69928,-16.27604 22.69615,-23.82062l0.75492,-2.47624c0,0 0.79057,-2.37171 3.16228,-1.58114z"/><path d="M364.58388,67.64021c-0.71361,-0.24794 -1.58388,-0.85269 -1.58388,-2.32771c0,-2.5 2.5,-2.5 2.5,-2.5l3.37171,1.70943c1.85525,5.73855 1.73077,12.69989 0.02859,18.48954c-0.92131,3.13366 -1.14607,4.36816 -3.93852,6.32914c-4.6304,3.25167 -10.7987,5.43544 -15.87161,7.97189c-2.63238,1.30621 -5.35575,2.51704 -8.21277,3.20486c-1.72623,0.41558 -3.41681,1.04622 -5.18292,1.22903c-2.49525,0.25829 -10.26086,-0.20294 -12.10203,-1.81795c-0.7121,-0.62463 -0.59738,-6.27699 -0.59245,-7.61594c0.0302,-8.20007 3.57993,-15.50774 5.0605,-23.54843c0.28934,-1.57136 0.61199,-3.13666 0.95167,-4.69791c0.21766,-1.00042 0.94696,-1.98752 0.72007,-2.98589c-0.10588,-0.46591 -0.76144,0.65078 -1.23223,0.73223c-0.98536,0.17048 -2,0 -3,0c-2.66667,0 -5.33333,0 -8,0c0,0 -2.5,0 -2.5,-2.5c0,-2.5 2.5,-2.5 2.5,-2.5c3.62951,0 7.38985,-0.34031 11,0c1.60079,0.1509 3.83828,-0.57978 4.76777,0.73223c1.35867,1.91782 0.77617,4.66446 0.72007,7.01411c-0.11504,4.81838 -1.93524,10.55922 -3.3735,15.12203c-0.84661,2.68584 -2.26891,5.23267 -2.64524,8.02352c-0.20527,1.52229 0.02467,3.07205 0.03091,4.6081c0.00406,0.99999 0.13392,2.00901 0,3c-0.06721,0.49732 -1.04141,1.15983 -0.59245,1.38406c0.97286,0.4859 2.17457,-0.06166 3.26197,-0.05076c3.02939,0.03038 6.0902,-0.27594 9.03466,-0.98886c2.48963,-0.6028 4.8627,-1.66323 7.14992,-2.81659c3.84242,-1.92121 7.67821,-3.85725 11.52786,-5.76393c0.99833,-0.49446 4.1416,-1.565 4.99141,-3.07826c2.36997,-4.2202 2.46545,-11.3833 1.21051,-16.35796z"/><path d="M376,158.3125c0,2.5 -2.5,2.5 -2.5,2.5h-2c-11.99992,0 -24.0001,0.02181 -36,0c-0.96589,-0.00176 -2.2357,0.05615 -3.58854,0.04338c-0.87196,0.26424 -1.74582,0.53621 -2.62089,0.82833l-3.55834,-1.60394c0,0 -0.22455,-0.22455 -0.43356,-0.59362c-0.283,-0.18621 -0.54117,-0.39704 -0.76919,-0.63562c-1.05237,-1.10108 -0.42399,-3.01908 -0.52949,-4.53853c-0.35191,-5.06854 1.01134,-9.94922 1,-15c0,0 0,-2.5 2.5,-2.5c2.5,0 2.5,2.5 2.5,2.5c-0.00834,4.11822 -0.88622,7.98029 -1.00105,12.07243c-0.02737,0.97547 0.1177,1.95871 0.00105,2.92757c-0.06194,0.51443 -0.926,1.12793 -0.52949,1.46147c0.59579,0.50117 1.55641,0.05299 2.33494,0.05726c0.07985,0.00044 0.15971,0.00084 0.23956,0.00122c7.6649,-2.5659 14.71378,-5.2249 20.67583,-11.27625c3.69571,-3.75106 7.57258,-8.15101 8.31144,-13.64415c0.65808,-4.89259 0.96772,-9.58919 0.96772,-14.59954c0,0 0,-2.5 2.5,-2.5c2.5,0 2.5,2.5 2.5,2.5c0,0.52913 0.00978,8.09891 -0.03228,8.40046c-0.14562,1.04398 -0.85093,1.9565 -1,3c-0.18856,1.31993 0.19802,2.68145 0,4c-1.55631,10.363 -10.69946,19.07343 -19.86072,24.09954c8.79767,0 17.59533,0 26.393,0h2c0,0 2.5,0 2.5,2.5z"/></g></g></svg>